<?xml version="1.0" encoding="UTF-8"?>
<svg version="1.1" xmlns="http://www.w3.org/2000/svg" width="64" height="64">
<path d="M0 0 C21.12 0 42.24 0 64 0 C64 21.12 64 42.24 64 64 C42.88 64 21.76 64 0 64 C0 42.88 0 21.76 0 0 Z " fill="#7EBEEB" transform="translate(0,0)"/>
<path d="M0 0 C11.23893805 1.12389381 11.23893805 1.12389381 15.25 3.375 C16.06984375 3.82488281 16.8896875 4.27476563 17.734375 4.73828125 C18.48203125 5.15464844 19.2296875 5.57101563 20 6 C21.155 6.515625 22.31 7.03125 23.5 7.5625 C26.28877108 9.16604337 26.74055758 10.14876229 28 13 C28.59167969 12.86722656 29.18335937 12.73445313 29.79296875 12.59765625 C33.85446525 11.68994822 37.91374171 10.7908887 42 10 C40.71735273 12.56529454 39.77227651 12.66499863 37.125 13.625 C36.42632812 13.88539062 35.72765625 14.14578125 35.0078125 14.4140625 C33 15 33 15 30 15 C30.495 15.78375 30.99 16.5675 31.5 17.375 C33 20 33 20 33 22 C34.8964649 21.37691903 36.79214535 20.75145015 38.6875 20.125 C39.74324219 19.77695312 40.79898438 19.42890625 41.88671875 19.0703125 C44.63149994 18.12668634 47.31692815 17.10508711 50 16 C46.68192476 20.00934092 42.94719931 21.72455018 38 23 C36.68 23 35.36 23 34 23 C34.495 26.465 34.495 26.465 35 30 C36.60463449 29.68991116 38.20869231 29.37683713 39.8125 29.0625 C41.15248047 28.80146484 41.15248047 28.80146484 42.51953125 28.53515625 C45.11397171 28.02258847 45.11397171 28.02258847 48 27 C48 27.66 48 28.32 48 29 C40.71428571 32.42857143 40.71428571 32.42857143 36 32 C36 33.32 36 34.64 36 36 C28.41 36 20.82 36 13 36 C12.67 34.35 12.34 32.7 12 31 C6.48811656 31.52494128 5.06036905 32.62642063 0 36 C0 24.12 0 12.24 0 0 Z " fill="#F5A86F" transform="translate(1,27)"/>
<path d="M0 0 C16.83 0 33.66 0 51 0 C51 16.5 51 33 51 50 C50.67 50 50.34 50 50 50 C49.74605469 49.13117187 49.49210937 48.26234375 49.23046875 47.3671875 C48.88628906 46.21476562 48.54210938 45.06234375 48.1875 43.875 C47.85105469 42.73804688 47.51460937 41.60109375 47.16796875 40.4296875 C45.69975612 36.11834741 44.24969274 32.24969274 41 29 C40.25777347 27.87582478 39.55142521 26.72745454 38.875 25.5625 C38.52179687 24.96566406 38.16859375 24.36882813 37.8046875 23.75390625 C37 22 37 22 37 19 C38.53125 17.17578125 38.53125 17.17578125 40.5 15.3125 C41.47453125 14.37857422 41.47453125 14.37857422 42.46875 13.42578125 C42.9740625 12.95527344 43.479375 12.48476562 44 12 C41.18060883 14.20979308 38.46941056 16.40062046 36 19 C35.01 18.67 34.02 18.34 33 18 C32.8453125 17.0409375 32.8453125 17.0409375 32.6875 16.0625 C32.460625 15.381875 32.23375 14.70125 32 14 C29.00384054 12.6954344 29.00384054 12.6954344 26 12 C26.33 10.68 26.66 9.36 27 8 C29.475 8.495 29.475 8.495 32 9 C32 8.34 32 7.68 32 7 C27.39257135 8.21044132 27.39257135 8.21044132 23 10 C22.34 9.67 21.68 9.34 21 9 C21 8.34 21 7.68 21 7 C20.21625 6.9175 19.4325 6.835 18.625 6.75 C14.6360782 5.92470584 11.19572347 4.54065843 7.46484375 2.9375 C4.98395845 1.99389862 2.611867 1.4469505 0 1 C0 0.67 0 0.34 0 0 Z " fill="#FBF7F3" transform="translate(12,1)"/>
<path d="M0 0 C3 1 3 1 4.31640625 3.22265625 C8.93246168 13.74263211 10 19.9097536 10 32 C1.42 32 -7.16 32 -16 32 C-16 30.68 -16 29.36 -16 28 C-15.07767578 27.80083984 -15.07767578 27.80083984 -14.13671875 27.59765625 C-13.32847656 27.42105469 -12.52023438 27.24445312 -11.6875 27.0625 C-10.88699219 26.88847656 -10.08648437 26.71445312 -9.26171875 26.53515625 C-6.854599 26.00113841 -6.854599 26.00113841 -4 25 C-6.9254644 24.7763932 -6.9254644 24.7763932 -9 26 C-11.6723621 26.13415472 -14.32250488 26.04318541 -17 26 C-17.33 23.69 -17.66 21.38 -18 19 C-17.28972656 18.79503906 -16.57945313 18.59007813 -15.84765625 18.37890625 C-14.92855469 18.10949219 -14.00945313 17.84007813 -13.0625 17.5625 C-12.14597656 17.29566406 -11.22945312 17.02882813 -10.28515625 16.75390625 C-8.0597507 16.20973949 -8.0597507 16.20973949 -7 15 C-7.69867188 15.2165625 -8.39734375 15.433125 -9.1171875 15.65625 C-10.02726562 15.9346875 -10.93734375 16.213125 -11.875 16.5 C-12.77992187 16.7784375 -13.68484375 17.056875 -14.6171875 17.34375 C-17 18 -17 18 -19 18 C-22 13.61538462 -22 13.61538462 -22 11 C-20.99839844 10.62488281 -19.99679688 10.24976563 -18.96484375 9.86328125 C-10.44693018 6.75201211 -10.44693018 6.75201211 -2.75 2.0625 C-1.8425 1.381875 -0.935 0.70125 0 0 Z " fill="#8ACFF5" transform="translate(53,31)"/>
<path d="M0 0 C11.23893805 1.12389381 11.23893805 1.12389381 15.25 3.375 C16.06984375 3.82488281 16.8896875 4.27476563 17.734375 4.73828125 C18.48203125 5.15464844 19.2296875 5.57101563 20 6 C21.155 6.515625 22.31 7.03125 23.5 7.5625 C26.28877108 9.16604337 26.74055758 10.14876229 28 13 C28.59167969 12.86722656 29.18335937 12.73445313 29.79296875 12.59765625 C33.85446525 11.68994822 37.91374171 10.7908887 42 10 C41 12 41 12 37.71875 13.1484375 C36.31431502 13.56348349 34.90792966 13.97196791 33.5 14.375 C28.72595938 15.78886273 24.13965676 17.24348992 19.625 19.375 C18.42875 19.91125 17.2325 20.4475 16 21 C15.34 20.67 14.68 20.34 14 20 C15.65 19.01 17.3 18.02 19 17 C13.37105717 18.25087618 9.84244202 19.60924635 6.375 24.375 C5.52035156 25.53128906 5.52035156 25.53128906 4.6484375 26.7109375 C4.10445313 27.46632813 3.56046875 28.22171875 3 29 C2.01 30.32 1.02 31.64 0 33 C0 22.11 0 11.22 0 0 Z " fill="#F9C777" transform="translate(1,27)"/>
<path d="M0 0 C21.12 0 42.24 0 64 0 C64 21.12 64 42.24 64 64 C42.88 64 21.76 64 0 64 C0 42.88 0 21.76 0 0 Z M1 1 C1 21.46 1 41.92 1 63 C2.98 61.68 4.96 60.36 7 59 C10.375 58.25 10.375 58.25 13 58 C13.33 59.65 13.66 61.3 14 63 C30.17 63 46.34 63 63 63 C63 42.54 63 22.08 63 1 C42.54 1 22.08 1 1 1 Z " fill="#68757B" transform="translate(0,0)"/>
<path d="M0 0 C0 3 0 3 -1.53125 4.82421875 C-3.35416667 6.54947917 -5.17708333 8.27473958 -7 10 C-4.525 14.455 -4.525 14.455 -2 19 C-7.09740495 24.23517265 -10.9352329 26.42195924 -18 28 C-18.83273438 28.18820313 -19.66546875 28.37640625 -20.5234375 28.5703125 C-22.68090091 29.05352986 -24.83964149 29.52992199 -27 30 C-27.99 28.68 -28.98 27.36 -30 26 C-26.92762917 22.6097977 -23.6845726 20.00661457 -19.9375 17.375 C-12.71815574 12.23514077 -6.26055137 6.26055137 0 0 Z " fill="#A0B5D0" transform="translate(56,11)"/>
<path d="M0 0 C9.77790574 -0.38767027 19.31756984 0.8070053 29 2 C29 2.33 29 2.66 29 3 C27.35 3 25.7 3 24 3 C24 4.32 24 5.64 24 7 C16.41 7 8.82 7 1 7 C0.67 4.69 0.34 2.38 0 0 Z " fill="#E4E5E9" transform="translate(13,56)"/>
<path d="M0 0 C5.66082034 0.80868862 8.29672643 1.36157824 13 4 C13 4.66 13 5.32 13 6 C12.29875 6.515625 11.5975 7.03125 10.875 7.5625 C7.57075497 10.36392514 5.62377964 13.33637113 3.33203125 16.9765625 C2 19 2 19 0 21 C0 14.07 0 7.14 0 0 Z " fill="#E4E7EB" transform="translate(1,39)"/>
<path d="M0 0 C-0.33 3.96 -0.66 7.92 -1 12 C-2.423125 12.226875 -3.84625 12.45375 -5.3125 12.6875 C-6.11300781 12.81511719 -6.91351563 12.94273438 -7.73828125 13.07421875 C-10 13 -10 13 -11.76953125 11.70703125 C-13.65260731 9.09463684 -13.39073512 7.125881 -13 4 C-11.9375 2.125 -11.9375 2.125 -10 1 C-6.4375 0.875 -6.4375 0.875 -3 1 C-1 0 -1 0 0 0 Z " fill="#86D0F9" transform="translate(20,8)"/>
<path d="M0 0 C0.33 0 0.66 0 1 0 C1.33 11.55 1.66 23.1 2 35 C3.65 33.68 5.3 32.36 7 31 C10.25 30.1875 10.25 30.1875 13 30 C14 31 14 31 14 36 C21.59 36 29.18 36 37 36 C37 36.33 37 36.66 37 37 C24.79 37 12.58 37 0 37 C0 24.79 0 12.58 0 0 Z " fill="#6B724E" transform="translate(0,27)"/>
<path d="M0 0 C0.66 0.33 1.32 0.66 2 1 C0.68 2.32 -0.64 3.64 -2 5 C-1.54176746 7.08444216 -1.54176746 7.08444216 0 9 C2.55984335 9.44532186 4.74357294 9.65076606 7.3125 9.6875 C11.68698258 9.83745778 15.72180027 10.12063105 20 11 C21.99771308 11.11423093 23.99906437 11.17473893 26 11.1875 C27.010625 11.20167969 28.02125 11.21585938 29.0625 11.23046875 C32.0885919 10.99304931 34.26227757 10.27324223 37 9 C37 9.66 37 10.32 37 11 C33.29555241 13.46963173 30.46585951 13.26119794 26.1875 13.1875 C25.13852539 13.1865332 25.13852539 13.1865332 24.06835938 13.18554688 C19.93864938 13.1507785 16.05667898 12.73042696 12 12 C2.89232441 11.18895152 -3.43585879 12.9572392 -11 18 C-10.12475784 10.56044167 -4.78025999 5.38575959 0 0 Z " fill="#EC624F" transform="translate(12,45)"/>
<path d="M0 0 C2 3 2 3 2 7 C-6.25 6.34 -14.5 5.68 -23 5 C-22 3 -22 3 -19.453125 1.92578125 C-15.51564656 0.87014506 -11.80508242 0.44372774 -7.75 0.1875 C-6.67105469 0.09178711 -6.67105469 0.09178711 -5.5703125 -0.00585938 C-3.484375 -0.14453125 -3.484375 -0.14453125 0 0 Z " fill="#FCDF82" transform="translate(34,50)"/>
<path d="M0 0 C5.94 0.33 11.88 0.66 18 1 C18 1.33 18 1.66 18 2 C16.35 2 14.7 2 13 2 C13 3.32 13 4.64 13 6 C9.04 6 5.08 6 1 6 C0.67 4.02 0.34 2.04 0 0 Z " fill="#F9D982" transform="translate(24,57)"/>
<path d="M0 0 C0 1.65 0 3.3 0 5 C-3.96 5 -7.92 5 -12 5 C-5.60587432 -1.7397541 -5.60587432 -1.7397541 0 0 Z " fill="#96DF6F" transform="translate(14,58)"/>
<path d="M0 0 C0.57234375 0.23589844 1.1446875 0.47179688 1.734375 0.71484375 C0.414375 1.70484375 -0.905625 2.69484375 -2.265625 3.71484375 C-1.275625 4.04484375 -0.285625 4.37484375 0.734375 4.71484375 C0.734375 5.37484375 0.734375 6.03484375 0.734375 6.71484375 C-4.215625 8.19984375 -4.215625 8.19984375 -9.265625 9.71484375 C-9.595625 8.72484375 -9.925625 7.73484375 -10.265625 6.71484375 C-9.03009224 5.51229851 -7.77660161 4.32818143 -6.515625 3.15234375 C-5.81953125 2.49105469 -5.1234375 1.82976563 -4.40625 1.1484375 C-2.265625 -0.28515625 -2.265625 -0.28515625 0 0 Z " fill="#F0C3A5" transform="translate(19.265625,43.28515625)"/>
<path d="M0 0 C0.3403125 0.8971875 0.3403125 0.8971875 0.6875 1.8125 C2.33811133 4.56351888 4.1972081 5.52484637 7 7 C6.34 8.32 5.68 9.64 5 11 C0.125 10.125 0.125 10.125 -1 9 C-1.1328125 7.1875 -1.1328125 7.1875 -1.125 5 C-1.12757812 4.278125 -1.13015625 3.55625 -1.1328125 2.8125 C-1 1 -1 1 0 0 Z " fill="#86CBF3" transform="translate(36,10)"/>
<path d="M0 0 C0.66 0 1.32 0 2 0 C3.32 2.64 4.64 5.28 6 8 C6.99 7.34 7.98 6.68 9 6 C8.34 7.98 7.68 9.96 7 12 C6.34 12 5.68 12 5 12 C4.01 9.69 3.02 7.38 2 5 C1.01 8.465 1.01 8.465 0 12 C-0.33 12 -0.66 12 -1 12 C-1.08159574 7.83861737 -0.98248524 4.0527516 0 0 Z " fill="#3E4898" transform="translate(20,9)"/>
<path d="M0 0 C2.31 0 4.62 0 7 0 C6.02526874 1.66926454 5.04510211 3.33535642 4.0625 5 C3.24458984 6.3921875 3.24458984 6.3921875 2.41015625 7.8125 C1.94480469 8.534375 1.47945313 9.25625 1 10 C0.67 10 0.34 10 0 10 C0 6.7 0 3.4 0 0 Z " fill="#9FDF76" transform="translate(1,50)"/>
<path d="M0 0 C0.33 1.32 0.66 2.64 1 4 C-2.96 4 -6.92 4 -11 4 C-10 2 -10 2 -7.1875 0.875 C-4 0 -4 0 0 0 Z " fill="#E4E0E0" transform="translate(22,51)"/>
<path d="M0 0 C0.99 0.33 1.98 0.66 3 1 C3 1.66 3 2.32 3 3 C-1.95 4.485 -1.95 4.485 -7 6 C-2.25 1.125 -2.25 1.125 0 0 Z " fill="#E6E2E1" transform="translate(17,47)"/>
<path d="M0 0 C0 0.66 0 1.32 0 2 C1.98 2 3.96 2 6 2 C6 2.33 6 2.66 6 3 C2.04 3 -1.92 3 -6 3 C-4.60722783 0.21445565 -3.01148006 0 0 0 Z " fill="#9BEC73" transform="translate(8,60)"/>
<path d="M0 0 C0.33 0.99 0.66 1.98 1 3 C-0.65 4.32 -2.3 5.64 -4 7 C-3.6875 4.625 -3.6875 4.625 -3 2 C-2.01 1.34 -1.02 0.68 0 0 Z " fill="#F42E19" transform="translate(5,56)"/>
</svg>
